<?xml version="1.0" standalone="no"?>
<!DOCTYPE svg PUBLIC "-//W3C//DTD SVG 20010904//EN"
 "http://www.w3.org/TR/2001/REC-SVG-20010904/DTD/svg10.dtd">
<svg version="1.0" xmlns="http://www.w3.org/2000/svg"
 width="225.000000pt" height="60.000000pt" viewBox="0 0 225.000000 60.000000"
 preserveAspectRatio="xMidYMid meet">

<g transform="translate(0.000000,60.000000) scale(0.100000,-0.100000)"
fill="#000000" stroke="none">
<path d="M1280 356 c0 -19 -4 -22 -25 -18 -33 6 -55 -14 -55 -48 0 -35 18 -50
58 -47 l32 2 0 68 c0 37 -2 67 -5 67 -3 0 -5 -11 -5 -24z m-10 -46 c14 -26 -4
-63 -28 -58 -18 3 -28 39 -18 64 8 20 34 17 46 -6z"/>
<path d="M1640 372 c-41 -12 -55 -86 -22 -115 57 -52 132 25 87 90 -16 22 -41
32 -65 25z m48 -24 c7 -7 12 -27 12 -45 0 -40 -38 -65 -65 -43 -18 15 -20 86
-2 93 22 9 43 7 55 -5z"/>
<path d="M1752 361 c-9 -26 -2 -121 9 -121 5 0 9 20 9 44 0 34 4 46 18 49 16
4 16 5 0 6 -26 2 -22 29 5 34 19 4 18 4 -6 6 -19 1 -30 -5 -35 -18z"/>
<path d="M1824 358 c-10 -29 -5 -100 7 -112 5 -6 9 8 9 36 0 36 4 48 18 51 16
4 16 5 0 6 -26 2 -22 29 5 34 19 4 19 4 -5 6 -19 1 -29 -5 -34 -21z"/>
<path d="M1890 370 c0 -5 5 -10 10 -10 6 0 10 5 10 10 0 6 -4 10 -10 10 -5 0
-10 -4 -10 -10z"/>
<path d="M2040 370 c0 -5 5 -10 10 -10 6 0 10 5 10 10 0 6 -4 10 -10 10 -5 0
-10 -4 -10 -10z"/>
<path d="M2202 313 c-2 -61 1 -73 14 -73 12 0 14 3 6 13 -6 7 -13 40 -15 72
l-3 60 -2 -72z"/>
<path d="M30 305 c0 -37 4 -65 10 -65 6 0 10 28 10 65 0 37 -4 65 -10 65 -6 0
-10 -28 -10 -65z"/>
<path d="M210 305 c0 -37 4 -65 10 -65 6 0 10 28 10 65 0 37 -4 65 -10 65 -6
0 -10 -28 -10 -65z"/>
<path d="M412 313 c-2 -54 0 -62 19 -68 11 -4 31 -4 45 -1 22 6 24 10 22 69
l-2 62 -3 -52 c-7 -97 -63 -99 -74 -2 l-6 54 -1 -62z"/>
<path d="M1100 305 l0 -65 43 2 42 1 -37 4 c-33 4 -38 8 -38 29 0 20 5 24 30
24 17 0 30 5 30 10 0 6 -13 10 -30 10 -23 0 -30 5 -30 19 0 15 8 21 38 24 l37
4 -42 1 -43 2 0 -65z"/>
<path d="M82 345 c-7 -8 -8 -15 -3 -15 5 0 11 -19 13 -42 3 -38 6 -43 28 -45
14 -1 18 0 8 3 -25 8 -25 81 0 87 16 4 16 5 0 6 -10 0 -18 6 -18 11 0 14 -13
12 -28 -5z"/>
<path d="M267 333 c-15 -14 -6 -33 23 -48 36 -19 30 -40 -9 -30 -19 5 -23 4
-15 -5 19 -19 59 -8 62 16 2 16 -4 24 -28 33 -33 11 -32 37 1 28 11 -3 19 -1
19 4 0 10 -43 12 -53 2z"/>
<path d="M540 288 c0 -59 18 -64 22 -5 2 34 7 42 23 42 16 0 21 -9 26 -45 l7
-45 -2 50 -1 50 -37 0 -38 1 0 -48z"/>
<path d="M663 290 c0 -30 2 -43 4 -27 2 15 2 39 0 55 -2 15 -4 2 -4 -28z"/>
<path d="M712 328 c-17 -17 -15 -63 3 -78 8 -7 25 -10 39 -6 21 5 25 2 29 -21
2 -16 5 4 6 42 l1 71 -33 2 c-18 1 -38 -3 -45 -10z m58 -18 c14 -26 -4 -63
-28 -58 -18 3 -28 39 -18 64 8 20 34 17 46 -6z"/>
<path d="M820 309 c0 -50 16 -69 55 -67 35 1 35 1 35 50 0 26 -4 48 -10 48 -5
0 -10 -18 -10 -39 0 -26 -5 -41 -16 -45 -25 -10 -34 2 -34 45 0 21 -4 39 -10
39 -5 0 -10 -14 -10 -31z"/>
<path d="M941 317 c-14 -35 -3 -66 25 -73 28 -7 54 1 54 16 0 6 -7 6 -19 -2
-15 -9 -23 -9 -35 1 -25 21 -19 31 20 31 31 0 35 3 32 23 -2 17 -11 23 -36 25
-26 3 -34 -1 -41 -21z m63 -2 c4 -11 -2 -15 -24 -15 -22 0 -28 4 -24 15 4 8
14 15 24 15 10 0 20 -7 24 -15z"/>
<path d="M1320 309 c0 -50 16 -69 55 -67 35 1 35 1 35 50 0 26 -4 48 -10 48
-5 0 -10 -18 -10 -39 0 -26 -5 -41 -16 -45 -25 -10 -34 2 -34 45 0 21 -4 39
-10 39 -5 0 -10 -14 -10 -31z"/>
<path d="M1890 290 c0 -27 5 -50 10 -50 6 0 10 23 10 50 0 28 -4 50 -10 50 -5
0 -10 -22 -10 -50z"/>
<path d="M1944 315 c-15 -23 -15 -27 0 -51 13 -18 24 -24 43 -22 15 2 28 9 31
16 3 11 0 11 -16 1 -17 -10 -23 -10 -36 0 -34 28 -7 79 35 66 14 -5 19 -4 15
4 -13 20 -55 12 -72 -14z"/>
<path d="M2047 333 c-11 -10 -8 -81 3 -88 6 -4 10 13 10 44 0 52 -1 56 -13 44z"/>
<path d="M2095 330 c-4 -7 1 -9 18 -5 38 10 44 -14 7 -26 -24 -9 -30 -17 -28
-33 2 -17 10 -21 45 -22 30 -1 40 2 34 10 -5 6 -11 27 -13 46 -2 29 -7 35 -30
38 -14 2 -29 -2 -33 -8z m55 -55 c0 -21 -28 -31 -43 -16 -9 9 -8 14 3 21 22
14 40 12 40 -5z"/>
<path d="M1493 303 c9 -2 23 -2 30 0 6 3 -1 5 -18 5 -16 0 -22 -2 -12 -5z"/>
</g>
</svg>
