<?xml version="1.0" standalone="no"?>
<!DOCTYPE svg PUBLIC "-//W3C//DTD SVG 20010904//EN"
 "http://www.w3.org/TR/2001/REC-SVG-20010904/DTD/svg10.dtd">
<svg version="1.0" xmlns="http://www.w3.org/2000/svg"
 width="225.000000pt" height="60.000000pt" viewBox="0 0 225.000000 60.000000"
 preserveAspectRatio="xMidYMid meet">

<g transform="translate(0.000000,60.000000) scale(0.100000,-0.100000)"
fill="#000000" stroke="none">
<path d="M1190 316 c0 -36 5 -68 11 -71 15 -10 15 -8 11 68 -5 86 -22 88 -22
3z"/>
<path d="M1643 369 c-43 -16 -44 -94 -2 -118 24 -13 29 -13 53 2 21 14 26 25
26 56 0 51 -33 77 -77 60z m59 -34 c16 -36 -3 -75 -37 -75 -18 0 -28 7 -35 25
-14 37 3 75 35 75 17 0 29 -8 37 -25z"/>
<path d="M1763 360 c-3 -11 -10 -20 -17 -20 -8 0 -8 -2 1 -8 6 -4 13 -28 16
-52 l4 -45 1 47 c2 35 6 48 20 51 16 4 16 5 0 6 -25 1 -22 20 5 31 l22 9 -23
0 c-16 1 -26 -6 -29 -19z"/>
<path d="M1823 355 c-6 -14 -7 -25 -3 -25 5 0 11 -21 13 -47 l3 -48 2 47 c2
35 6 48 20 51 16 4 16 5 0 6 -26 2 -22 29 5 34 21 4 20 4 -3 6 -18 0 -28 -7
-37 -24z"/>
<path d="M1890 370 c0 -5 5 -10 10 -10 6 0 10 5 10 10 0 6 -4 10 -10 10 -5 0
-10 -4 -10 -10z"/>
<path d="M2040 369 c0 -5 5 -7 10 -4 6 3 10 8 10 11 0 2 -4 4 -10 4 -5 0 -10
-5 -10 -11z"/>
<path d="M2192 318 c-2 -61 9 -91 26 -73 3 3 1 9 -5 13 -7 4 -14 34 -16 67
l-3 60 -2 -67z"/>
<path d="M53 305 c0 -38 2 -53 4 -32 2 20 2 52 0 70 -2 17 -4 1 -4 -38z"/>
<path d="M223 305 c0 -38 2 -53 4 -32 2 20 2 52 0 70 -2 17 -4 1 -4 -38z"/>
<path d="M400 325 c0 -32 6 -51 20 -65 43 -43 81 -13 79 63 -1 29 -3 41 -6 27
-14 -94 -13 -91 -41 -88 -25 3 -27 7 -30 56 -4 64 -22 70 -22 7z"/>
<path d="M1070 310 c0 -67 12 -80 59 -64 18 7 27 18 29 37 2 16 -2 27 -9 27
-9 0 -9 3 0 14 21 25 2 46 -40 46 l-39 0 0 -60z m68 33 c-2 -10 -13 -19 -26
-21 -17 -3 -22 2 -22 17 0 16 6 21 26 21 19 0 25 -5 22 -17z m1 -42 c21 -13 5
-41 -24 -41 -20 0 -25 5 -25 25 0 26 22 33 49 16z"/>
<path d="M92 345 c-7 -9 -8 -15 -2 -15 5 0 10 -15 10 -34 0 -39 24 -66 42 -48
9 9 8 12 -5 12 -25 0 -24 67 1 73 16 4 16 5 0 6 -10 0 -18 6 -18 11 0 14 -13
12 -28 -5z"/>
<path d="M1393 343 c-29 -6 -49 -31 -36 -44 7 -7 7 -21 0 -46 -9 -28 -8 -36 4
-44 21 -13 46 -11 64 7 20 20 3 44 -31 44 -30 0 -32 18 -2 22 16 2 24 12 29
36 4 17 4 31 0 31 -3 -1 -16 -4 -28 -6z m15 -30 c-2 -10 -10 -18 -18 -18 -8 0
-16 8 -18 18 -2 12 3 17 18 17 15 0 20 -5 18 -17z m10 -80 c2 -9 -7 -13 -27
-13 -30 0 -39 9 -24 24 11 10 46 3 51 -11z"/>
<path d="M265 330 c-9 -14 3 -30 31 -40 35 -14 30 -33 -6 -28 -33 5 -41 -7
-11 -17 48 -15 73 37 26 55 -33 12 -33 34 0 28 13 -3 22 -1 19 3 -7 12 -51 11
-59 -1z"/>
<path d="M542 285 l1 -50 6 45 c5 37 10 46 29 48 20 3 22 -1 22 -37 0 -23 5
-41 10 -41 11 0 13 33 4 68 -5 18 -13 22 -40 20 l-34 -2 2 -51z"/>
<path d="M653 290 c0 -30 2 -43 4 -27 2 15 2 39 0 55 -2 15 -4 2 -4 -28z"/>
<path d="M702 328 c-7 -7 -12 -24 -12 -40 0 -30 28 -52 54 -42 12 4 16 0 16
-15 0 -12 5 -21 10 -21 6 0 10 28 10 63 l0 64 -33 1 c-19 1 -39 -4 -45 -10z
m53 -33 c0 -23 -5 -31 -21 -33 -26 -4 -38 22 -23 49 16 30 44 20 44 -16z"/>
<path d="M811 304 c-1 -48 13 -64 52 -57 25 5 27 9 27 49 0 54 -18 59 -22 7
-2 -30 -7 -38 -23 -38 -16 0 -21 9 -26 40 l-6 40 -2 -41z"/>
<path d="M919 314 c-7 -20 -6 -32 6 -50 18 -28 33 -30 61 -10 18 13 17 14 -15
13 -19 -1 -36 3 -38 11 -3 8 7 12 31 12 20 0 36 4 36 9 0 27 -15 41 -41 41
-23 0 -32 -6 -40 -26z m61 1 c0 -9 -9 -15 -25 -15 -24 0 -32 10 -18 23 12 13
43 7 43 -8z"/>
<path d="M1252 328 c-26 -26 -3 -88 33 -88 36 0 59 62 33 88 -15 15 -51 15
-66 0z m56 -36 c3 -28 0 -32 -21 -32 -28 0 -40 27 -25 54 16 28 43 15 46 -22z"/>
<path d="M1890 295 c0 -25 5 -45 10 -45 6 0 10 20 10 45 0 25 -4 45 -10 45 -5
0 -10 -20 -10 -45z"/>
<path d="M1940 320 c-21 -39 12 -87 50 -75 29 9 25 21 -7 20 -24 0 -28 4 -28
30 0 26 4 30 28 30 15 -1 27 3 27 7 0 4 -13 8 -30 8 -19 0 -33 -7 -40 -20z"/>
<path d="M2043 290 c0 -30 2 -43 4 -27 2 15 2 39 0 55 -2 15 -4 2 -4 -28z"/>
<path d="M2085 330 c-4 -6 6 -7 26 -3 24 5 31 3 27 -8 -2 -7 -15 -16 -29 -19
-24 -6 -41 -49 -20 -51 49 -6 71 -3 66 9 -3 8 -5 29 -5 48 0 31 -3 34 -29 34
-17 0 -33 -4 -36 -10z m55 -49 c0 -6 -5 -13 -10 -16 -15 -9 -43 3 -35 15 8 13
45 13 45 1z"/>
<path d="M1503 303 c9 -2 23 -2 30 0 6 3 -1 5 -18 5 -16 0 -22 -2 -12 -5z"/>
</g>
</svg>
